<svg width="256" height="256" viewBox="0 0 256 256" fill="none" xmlns="http://www.w3.org/2000/svg">
<g clip-path="url(#clip0_2_39)">
<path d="M51.2 0H204.8C218.379 0 231.402 5.39427 241.004 14.9961C250.606 24.598 256 37.6209 256 51.2V204.8C256 218.379 250.606 231.402 241.004 241.004C231.402 250.606 218.379 256 204.8 256H51.2C37.6209 256 24.598 250.606 14.9961 241.004C5.39427 231.402 0 218.379 0 204.8L0 51.2C0 37.6209 5.39427 24.598 14.9961 14.9961C24.598 5.39427 37.6209 0 51.2 0V0Z" fill="#000080" fill-opacity="0.2"/>
<g clip-path="url(#clip1_2_39)">
<path d="M188.397 128.017C188.397 94.6815 161.335 67.6196 128 67.6196C94.6648 67.6196 67.603 94.6815 67.603 128.017C67.603 161.352 94.6648 188.414 128 188.414C161.335 188.414 188.397 161.352 188.397 128.017Z" fill="#000080"/>
<path d="M170.712 102.99C170.712 93.23 162.787 85.3049 153.026 85.3049C143.266 85.3049 135.341 93.23 135.341 102.99C135.341 112.751 143.266 120.676 153.026 120.676C162.787 120.676 170.712 112.751 170.712 102.99Z" fill="white"/>
<path d="M206.082 67.6029C206.082 57.8426 198.157 49.9176 188.397 49.9176C178.637 49.9176 170.712 57.8426 170.712 67.6029C170.712 77.3632 178.637 85.2882 188.397 85.2882C198.157 85.2882 206.082 77.3799 206.082 67.6029Z" fill="#000080"/>
<path d="M92.0621 153.744H111.633V158.198H87.0068V118.573H92.0621V153.744Z" fill="white"/>
<path d="M135.007 158.198V154.228C132.338 157.982 129.685 159.45 125.497 159.45C119.958 159.45 116.421 156.413 116.421 151.675V129.718H120.926V149.89C120.926 153.31 123.212 155.496 126.799 155.496C131.52 155.496 134.574 151.692 134.574 145.869V129.718H139.078V158.198H135.007Z" fill="white"/>
<path d="M172.197 158.966C170.728 159.35 170.028 159.45 169.093 159.45C166.157 159.45 164.739 158.148 164.422 155.262C161.218 158.199 158.332 159.45 154.745 159.45C148.989 159.45 145.402 156.196 145.402 151.024C145.402 147.32 147.087 144.768 150.407 143.416C152.142 142.716 153.127 142.499 159.533 141.681C163.12 141.247 164.255 140.43 164.255 138.528V137.326C164.255 134.607 161.969 133.089 157.898 133.089C153.66 133.089 151.592 134.657 151.208 138.144H146.636C146.753 135.324 147.287 133.689 148.588 132.221C150.49 130.102 153.911 128.901 158.048 128.901C165.056 128.901 168.76 131.62 168.76 136.676V153.427C168.76 154.845 169.627 155.663 171.212 155.663C171.479 155.663 171.696 155.662 172.197 155.546V158.966V158.966ZM164.255 144.117C162.737 144.818 161.752 145.035 156.964 145.685C152.125 146.386 150.107 147.921 150.107 150.907C150.107 153.794 152.176 155.479 155.713 155.479C158.382 155.479 160.601 154.611 162.453 152.926C163.804 151.675 164.255 150.757 164.255 149.222V144.117V144.117Z" fill="white"/>
<path fill-rule="evenodd" clip-rule="evenodd" d="M124.551 49.0689C125.695 49.0197 126.845 48.9949 128 48.9949C129.162 48.9949 130.323 49.0205 131.481 49.0715L131.401 50.8819C130.27 50.832 129.136 50.807 128 50.807C126.871 50.807 125.747 50.8313 124.629 50.8794L124.551 49.0689ZM110.895 50.8541C113.124 50.3615 115.388 49.9632 117.683 49.6634L117.918 51.4603C115.675 51.7531 113.463 52.1423 111.286 52.6235L110.895 50.8541ZM138.415 49.6838C140.719 49.9899 143.006 50.3972 145.269 50.9037L144.873 52.672C142.662 52.1771 140.428 51.7792 138.177 51.4801L138.415 49.6838ZM97.7609 54.9952C99.8752 54.1178 102.036 53.3296 104.238 52.6353L104.783 54.3635C102.632 55.0418 100.521 55.8118 98.4555 56.669L97.7609 54.9952ZM151.989 52.7216C154.2 53.4254 156.38 54.2267 158.523 55.1236L157.824 56.7953C155.729 55.9189 153.599 55.136 151.439 54.4483L151.989 52.7216ZM85.5508 61.367C87.4836 60.1327 89.4736 58.9801 91.516 57.9141L92.3544 59.5206C90.359 60.562 88.4147 61.6882 86.5262 62.8942L85.5508 61.367ZM164.82 58.0909C165.846 58.6308 166.861 59.1938 167.865 59.7797L166.951 61.3446C165.971 60.7721 164.979 60.222 163.976 59.6946L164.82 58.0909ZM74.6323 69.7588C76.3251 68.2067 78.0857 66.7273 79.9092 65.3257L81.0135 66.7624C79.2317 68.1321 77.5112 69.5777 75.8569 71.0944L74.6323 69.7588ZM65.3257 79.9092C66.7273 78.0857 68.2067 76.3251 69.7588 74.6323L71.0945 75.8569C69.5777 77.5112 68.1321 79.2317 66.7624 81.0135L65.3257 79.9092ZM57.9141 91.5159C58.9801 89.4736 60.1327 87.4836 61.367 85.5508L62.8943 86.5262C61.6882 88.4147 60.562 90.359 59.5206 92.3544L57.9141 91.5159ZM198.398 92.1348C198.867 93.0574 199.318 93.988 199.75 94.9263L198.105 95.6846C197.682 94.7678 197.242 93.8584 196.783 92.957L198.398 92.1348ZM52.6353 104.238C53.3296 102.036 54.1179 99.8752 54.9953 97.7609L56.669 98.4555C55.8118 100.521 55.0418 102.632 54.3636 104.783L52.6353 104.238ZM202.123 100.657C202.839 102.599 203.478 104.567 204.039 106.557L202.295 107.049C201.747 105.105 201.123 103.182 200.423 101.284L202.123 100.657ZM49.6635 117.683C49.9632 115.388 50.3615 113.124 50.8541 110.895L52.6235 111.286C52.1423 113.463 51.7531 115.675 51.4603 117.918L49.6635 117.683ZM205.487 112.588C205.89 114.615 206.214 116.659 206.457 118.715L204.658 118.928C204.42 116.919 204.104 114.922 203.71 112.942L205.487 112.588ZM48.9949 128C48.9949 126.845 49.0198 125.695 49.0689 124.551L50.8794 124.629C50.8313 125.747 50.807 126.871 50.807 128C50.807 129.129 50.8313 130.253 50.8794 131.371L49.0689 131.449C49.0198 130.305 48.9949 129.155 48.9949 128ZM206.944 124.898C206.985 125.931 207.005 126.965 207.005 128C207.005 129.155 206.98 130.305 206.931 131.449L205.121 131.371C205.169 130.253 205.193 129.129 205.193 128C205.193 126.988 205.173 125.978 205.133 124.97L206.944 124.898ZM206.337 138.317C206.037 140.612 205.638 142.876 205.146 145.105L203.376 144.714C203.858 142.536 204.247 140.324 204.54 138.082L206.337 138.317ZM50.8541 145.105C50.3615 142.876 49.9632 140.612 49.6635 138.317L51.4603 138.082C51.7532 140.324 52.1423 142.536 52.6235 144.714L50.8541 145.105ZM203.365 151.762C202.67 153.964 201.882 156.125 201.005 158.239L199.331 157.545C200.188 155.479 200.958 153.368 201.636 151.217L203.365 151.762ZM54.9953 158.239C54.1179 156.125 53.3296 153.964 52.6353 151.762L54.3636 151.217C55.0418 153.368 55.8118 155.479 56.669 157.545L54.9953 158.239ZM198.086 164.484C197.02 166.526 195.867 168.516 194.633 170.449L193.106 169.474C194.312 167.585 195.438 165.641 196.479 163.646L198.086 164.484ZM61.367 170.449C60.1327 168.516 58.9801 166.526 57.9141 164.484L59.5206 163.646C60.562 165.641 61.6882 167.585 62.8943 169.474L61.367 170.449ZM190.674 176.091C189.273 177.914 187.793 179.675 186.241 181.368L184.906 180.143C186.422 178.489 187.868 176.768 189.238 174.986L190.674 176.091ZM69.7588 181.368C68.2067 179.675 66.7273 177.914 65.3257 176.091L66.7625 174.986C68.1321 176.768 69.5777 178.489 71.0945 180.143L69.7588 181.368ZM181.368 186.241C179.675 187.793 177.914 189.273 176.091 190.674L174.986 189.238C176.768 187.868 178.489 186.422 180.143 184.905L181.368 186.241ZM79.9092 190.674C78.0857 189.273 76.3251 187.793 74.6323 186.241L75.8569 184.906C77.5112 186.422 79.2317 187.868 81.0136 189.238L79.9092 190.674ZM170.449 194.633C168.516 195.867 166.526 197.02 164.484 198.086L163.646 196.479C165.641 195.438 167.585 194.312 169.474 193.106L170.449 194.633ZM91.516 198.086C89.4736 197.02 87.4836 195.867 85.5508 194.633L86.5262 193.106C88.4147 194.312 90.359 195.438 92.3544 196.479L91.516 198.086ZM158.239 201.005C156.125 201.882 153.964 202.67 151.762 203.365L151.217 201.636C153.368 200.958 155.479 200.188 157.545 199.331L158.239 201.005ZM104.238 203.365C102.036 202.67 99.8752 201.882 97.7609 201.005L98.4555 199.331C100.521 200.188 102.632 200.958 104.783 201.636L104.238 203.365ZM117.683 206.337C115.388 206.037 113.124 205.638 110.895 205.146L111.286 203.376C113.464 203.858 115.676 204.247 117.918 204.54L117.683 206.337ZM145.105 205.146C142.876 205.638 140.612 206.037 138.317 206.337L138.082 204.54C140.325 204.247 142.537 203.858 144.714 203.376L145.105 205.146ZM128 207.005C126.845 207.005 125.695 206.98 124.551 206.931L124.629 205.121C125.747 205.169 126.871 205.193 128 205.193C129.129 205.193 130.253 205.169 131.371 205.121L131.449 206.931C130.305 206.98 129.155 207.005 128 207.005Z" fill="#808080"/>
</g>
</g>
<defs>
<clipPath id="clip0_2_39">
<rect width="256" height="256" fill="white"/>
</clipPath>
<clipPath id="clip1_2_39">
<rect width="158" height="158" fill="white" transform="translate(49 49)"/>
</clipPath>
</defs>
</svg>
